<svg width="72" height="72" viewBox="0 0 72 72" fill="none" xmlns="http://www.w3.org/2000/svg">
<rect width="72" height="72" fill="black"/>
<path d="M35.76 23.904C35.688 23.904 35.436 23.844 35.004 23.724C34.596 23.58 34.212 23.508 33.852 23.508C32.7 23.508 31.392 23.568 29.928 23.688C28.464 23.808 27.252 23.976 26.292 24.192C26.364 25.344 26.424 27.168 26.472 29.664C26.544 32.136 26.58 34.74 26.58 37.476C26.58 38.628 26.556 39.912 26.508 41.328C26.484 42.744 26.436 43.62 26.364 43.956C26.316 44.22 26.148 44.436 25.86 44.604C25.596 44.772 25.32 44.856 25.032 44.856C24.864 44.856 24.72 44.784 24.6 44.64C24.48 44.496 24.42 44.328 24.42 44.136L24.456 42.876C24.6 41.004 24.672 38.7 24.672 35.964C24.672 33.996 24.648 31.752 24.6 29.232C24.552 26.688 24.504 25.116 24.456 24.516C19.656 25.044 16.452 25.536 14.844 25.992C14.556 26.088 14.232 26.136 13.872 26.136C13.44 26.136 13.02 25.98 12.612 25.668C12.204 25.356 12 25.02 12 24.66C12 24.42 12.072 24.252 12.216 24.156C12.36 24.036 12.54 23.976 12.756 23.976C14.124 23.904 15.276 23.832 16.212 23.76C18.348 23.568 21.036 23.268 24.276 22.86C24.276 22.116 24.288 21.588 24.312 21.276C24.36 20.964 24.444 20.808 24.564 20.808C25.02 20.808 25.428 20.988 25.788 21.348C25.86 21.42 25.92 21.612 25.968 21.924C26.016 22.212 26.04 22.404 26.04 22.5C26.568 22.476 27.432 22.356 28.632 22.14C31.224 21.732 33 21.528 33.96 21.528C35.112 21.528 35.88 21.672 36.264 21.96C36.528 22.152 36.66 22.5 36.66 23.004C36.66 23.196 36.576 23.4 36.408 23.616C36.24 23.808 36.024 23.904 35.76 23.904ZM47.7508 39.312C46.2868 40.608 44.7748 41.832 43.2148 42.984C41.6788 44.136 40.3948 44.952 39.3628 45.432C39.2908 45.696 39.1828 45.888 39.0388 46.008C38.8948 46.152 38.6788 46.224 38.3908 46.224C38.1748 46.224 38.0188 46.176 37.9228 46.08C37.8268 46.008 37.7788 45.864 37.7788 45.648C37.7788 45.504 37.8268 44.904 37.9228 43.848C38.0428 42.792 38.1028 41.556 38.1028 40.14C38.1028 37.74 38.0668 35.568 37.9948 33.624C37.9468 31.368 37.9228 29.784 37.9228 28.872C37.9228 27.456 38.0668 26.292 38.3548 25.38C38.5708 24.804 38.9548 24.516 39.5068 24.516C39.6988 24.516 39.8668 24.552 40.0108 24.624C40.1788 24.696 40.2628 24.804 40.2628 24.948C40.2388 25.068 40.1068 25.488 39.8668 26.208C39.6508 26.928 39.5428 27.612 39.5428 28.26C39.5428 30.06 39.5788 32.028 39.6508 34.164C39.6988 36.9 39.7228 38.796 39.7228 39.852C39.7228 41.652 39.7108 42.732 39.6868 43.092C40.5508 42.756 41.7148 42.06 43.1788 41.004C44.6668 39.948 45.9148 38.988 46.9228 38.124C49.0108 36.252 50.5348 34.572 51.4948 33.084C52.4548 31.596 52.9348 30.048 52.9348 28.44C52.9348 26.496 51.7108 25.164 49.2628 24.444C46.8388 23.724 43.6588 23.364 39.7228 23.364C38.5228 23.364 36.9148 23.508 34.8988 23.796C34.5148 23.82 33.9148 23.94 33.0988 24.156C32.7388 24.276 32.4868 24.336 32.3428 24.336C32.1508 24.336 31.9708 24.18 31.8028 23.868C31.6108 23.556 31.5148 23.244 31.5148 22.932C31.5148 22.812 31.5988 22.704 31.7668 22.608C31.9348 22.488 32.1988 22.404 32.5588 22.356C33.9988 22.164 35.2228 22.02 36.2308 21.924C37.2628 21.828 38.4628 21.78 39.8308 21.78C44.1988 21.78 47.7508 22.272 50.4868 23.256C53.2468 24.24 54.6268 25.908 54.6268 28.26C54.6268 30.132 54.0868 31.908 53.0068 33.588C51.9268 35.268 50.1748 37.176 47.7508 39.312Z" fill="white"/>
</svg>
